<?xml version="1.0" encoding="UTF-8"?>
<svg xmlns="http://www.w3.org/2000/svg" xmlns:xlink="http://www.w3.org/1999/xlink" width="192pt" height="284.3pt" viewBox="0 0 192 284.3" version="1.1">
<g id="surface1">
<path style=" stroke:none;fill-rule:evenodd;fill:rgb(3.921509%,3.921509%,3.921509%);fill-opacity:1;" d="M 1.910156 237.605469 C 0.0898438 241.226563 1.386719 249.761719 3.886719 254.589844 C 4.65625 256.5625 4.984375 257.683594 6.230469 259.507813 C 7.097656 260.777344 7.46875 260.683594 8.644531 261.609375 C 10.648438 263.183594 12.496094 263.375 15.03125 262.921875 C 16.320313 262.691406 16.628906 262.425781 17.777344 262.203125 C 20.128906 266.964844 25.226563 269.757813 29.492188 266.628906 L 30.953125 265.328125 C 31.921875 264.332031 32.035156 263.628906 32.421875 262.121094 L 32.984375 260.4375 C 33.59375 259.214844 33.480469 259.804688 34.660156 259.644531 L 37.625 258.480469 C 41.253906 256.140625 44.214844 251.558594 44.035156 247.046875 C 43.9375 244.621094 43.1875 243.035156 41.96875 241.398438 C 43.183594 241.679688 42.148438 241.316406 42.988281 241.796875 L 43.59375 242.234375 C 45.90625 243.855469 49.296875 245.210938 51.867188 246.441406 L 55.308594 247.851563 C 59.28125 249.382813 57.015625 247.304688 58.070313 255.277344 C 58.742188 260.355469 59.089844 260.0625 61.386719 263.210938 L 60.675781 263.53125 C 60.328125 263.683594 60.179688 263.738281 59.949219 263.84375 C 57.128906 265.117188 56.257813 265.695313 54.46875 267.691406 L 53.960938 268.230469 C 53.910156 268.285156 53.839844 268.359375 53.789063 268.414063 L 53.460938 268.777344 C 53.449219 268.792969 53.03125 269.277344 52.984375 269.339844 C 49.734375 273.398438 50.058594 281.058594 52.699219 282.308594 L 54.464844 282.949219 L 68.675781 282.949219 L 76.011719 281.605469 C 78.460938 280.945313 85.84375 279.210938 87.269531 277.652344 C 88.316406 276.511719 88.070313 274.808594 88.070313 272.890625 C 88.066406 269.398438 88.523438 268.152344 88.398438 263.550781 C 91.449219 262.117188 92.859375 260.972656 92.925781 253.535156 L 97.046875 253.523438 C 97.167969 259.375 97.578125 261.316406 101.511719 263.59375 C 101.59375 265.296875 101.472656 267.035156 101.597656 268.71875 C 101.695313 270.074219 101.921875 270.496094 101.910156 272.902344 C 101.875 279.605469 103.761719 278.511719 109.132813 280.25 L 111.851563 281.027344 C 112.695313 281.191406 111.828125 281 112.664063 281.238281 C 113.429688 281.457031 113.53125 281.46875 114.621094 281.671875 L 120.941406 282.949219 L 134.855469 282.949219 C 136.816406 281.671875 138.007813 284.207031 139.074219 278.636719 C 139.90625 274.285156 138.835938 271.378906 136.042969 268.230469 L 135.722656 267.855469 C 135.675781 267.796875 135.617188 267.714844 135.570313 267.65625 C 133.699219 265.296875 131.667969 264.652344 128.582031 263.257813 L 131.5625 257.21875 C 131.570313 257.164063 131.585938 257.0625 131.597656 257.007813 C 132.605469 251.433594 131.988281 252.105469 132.191406 249.511719 C 132.199219 249.433594 132.226563 249.210938 132.238281 249.140625 C 132.363281 248.464844 134.679688 247.773438 136.355469 247.089844 L 147.644531 241.402344 C 147.210938 242.894531 147.117188 242.054688 146.519531 244.144531 C 145.816406 246.613281 145.726563 247.652344 146.351563 249.9375 C 146.800781 251.589844 146.59375 251.636719 147.363281 253.066406 C 149.058594 256.203125 152.640625 259.75 156.976563 259.753906 C 157.054688 260.933594 157.375 261.417969 157.695313 262.484375 C 158.117188 263.882813 158.027344 264.164063 159.023438 265.320313 L 159.527344 265.859375 C 162.183594 268.425781 166.84375 268.269531 169.078125 266.320313 L 169.421875 265.96875 C 169.445313 265.945313 169.792969 265.542969 169.910156 265.414063 C 171.144531 264.054688 171.285156 264.003906 172.179688 262.164063 C 173.164063 262.375 173.925781 262.675781 174.855469 262.933594 C 176.511719 263.394531 179.429688 263.109375 181.535156 261.46875 C 181.589844 261.425781 181.667969 261.359375 181.722656 261.316406 C 184.769531 258.917969 185.410156 257.1875 186.414063 253.132813 C 187.066406 250.484375 188.019531 244.886719 187.695313 241.921875 C 187.390625 239.175781 189.261719 239.324219 190.753906 236.042969 L 191.945313 233.449219 L 191.945313 227.167969 C 191.027344 226.472656 191.324219 226.410156 190.640625 225.390625 L 189.355469 223.910156 C 187.929688 222.640625 187.25 222.769531 185.695313 222.015625 C 185.835938 215.191406 185.589844 210.335938 184.273438 204.089844 L 180.78125 188.167969 C 178.90625 178.164063 172.21875 166.929688 170.34375 151.671875 C 169.671875 146.214844 169.050781 141.710938 169.964844 136.617188 L 172.136719 119.0625 C 172.28125 117.46875 171.878906 114.976563 172.828125 114.242188 C 174.480469 112.960938 173.707031 116.109375 177.210938 107.554688 C 177.796875 106.128906 178.144531 105.03125 178.660156 103.457031 C 179.390625 101.246094 181.585938 97.238281 179.140625 95.617188 C 177.320313 94.410156 174.113281 92.359375 171.867188 92.144531 C 171.792969 87.964844 170.835938 84.65625 170.023438 80.6875 C 169.890625 80.042969 170.011719 80.457031 169.808594 79.632813 C 169.511719 78.410156 169.558594 78.109375 169.347656 76.667969 C 168.824219 73.019531 167.25 69.289063 165.890625 65.929688 C 164.847656 63.347656 164.027344 60.867188 162.589844 58.5 C 162.074219 57.648438 161.875 57.203125 161.367188 56.261719 C 160.863281 55.320313 160.542969 54.949219 160.089844 54.070313 L 157.605469 49.28125 C 156.789063 47.773438 155.632813 46.695313 154.621094 45.355469 C 151.058594 40.664063 147.128906 36.210938 142.597656 32.433594 L 141.058594 31.199219 C 141 31.15625 140.921875 31.089844 140.867188 31.046875 L 139.511719 29.96875 C 139.453125 29.921875 139.378906 29.855469 139.324219 29.808594 L 134.726563 26.457031 C 133.359375 25.351563 131.5625 24.949219 130.28125 23.949219 C 131.394531 24.03125 132.578125 24.394531 133.777344 24.636719 C 136.363281 25.152344 139.992188 27.859375 142.433594 28.117188 C 142.011719 26.871094 138.835938 25.019531 137.585938 24.621094 C 135.332031 23.902344 134.21875 22.960938 132.007813 22.246094 C 130.960938 21.910156 120.488281 20.097656 120.171875 19.21875 C 120.136719 19.117188 120.011719 19.160156 119.941406 19.117188 C 124.578125 19.113281 127.355469 19.84375 130.382813 20.75 C 133.566406 21.699219 136.589844 22.960938 139.324219 24.625 C 139.105469 22.703125 139.78125 24.308594 138.382813 23.132813 L 134.136719 20.097656 C 133.171875 19.609375 131.816406 19.113281 130.648438 18.722656 C 123.4375 16.320313 117.359375 18.183594 115.589844 17.785156 C 114.558594 17.554688 113.210938 17.316406 112.324219 16.671875 L 115.316406 15.488281 C 120.152344 14.0625 126.378906 15.175781 131.539063 17.152344 C 133.550781 17.921875 136.316406 20.066406 136.894531 19.808594 C 137.089844 19.195313 137.25 19.960938 136.703125 19.246094 L 134.8125 17.359375 C 131.148438 13.425781 124.820313 12.304688 119.527344 12.988281 C 119.023438 13.054688 116.660156 13.179688 115.695313 13.484375 C 111.488281 14.816406 112.980469 16.566406 109.523438 16.339844 L 112.042969 12.59375 C 116.78125 5.90625 125.71875 3.660156 127.546875 2.476563 C 122.078125 2.414063 115.535156 4.585938 112.074219 8.839844 C 112.074219 8.839844 111.621094 9.363281 111.59375 9.394531 L 107.179688 15.734375 C 107.152344 15.738281 107.054688 15.765625 107.023438 15.769531 C 106.957031 15.777344 106.746094 15.785156 106.664063 15.78125 L 103.671875 15.578125 C 104.210938 12.863281 106.308594 11.199219 107.148438 8.339844 C 103.785156 10.609375 103.621094 11.5625 101.914063 15.308594 C 99.808594 15.195313 100.195313 15.070313 99.988281 14.613281 C 99.582031 13.71875 102.257813 3.289063 102.945313 1.765625 C 103.214844 1.171875 103.386719 0.625 103.664063 0.0507813 L 102.957031 0.0507813 C 102.234375 1.3125 101.324219 2.257813 100.890625 3.871094 C 100.441406 5.527344 99.992188 6.613281 99.511719 8.050781 C 97.285156 14.710938 99.554688 14.976563 96.378906 14.910156 C 96.378906 9.617188 93.742188 4.21875 90.839844 0.0507813 L 89.144531 0.0507813 C 89.152344 1.34375 89.214844 1.117188 89.859375 2.042969 C 90.523438 2.996094 90.160156 2.292969 90.753906 3.609375 C 91.363281 4.972656 91.839844 5.734375 92.417969 7.121094 C 93.140625 8.851563 94.820313 13.265625 94.996094 14.925781 L 92.222656 14.925781 C 91.199219 13.140625 90.011719 10.117188 88.46875 8.644531 C 88.300781 8.484375 87.238281 7.683594 86.914063 7.425781 L 83.109375 5.363281 C 82.3125 5.132813 83.53125 5.648438 82.511719 5.222656 C 82.949219 6.527344 86.15625 9.507813 87.21875 10.589844 L 91.167969 14.886719 C 89.285156 14.988281 88.277344 15.136719 86.433594 15.382813 C 85.234375 15.539063 83.082031 15.710938 82.570313 15.957031 C 81.753906 13.390625 80.253906 11.734375 78.6875 9.78125 L 78.230469 9.191406 C 75.214844 5.210938 70.128906 3.65625 65.363281 2.671875 L 63.195313 2.5625 C 62.339844 2.722656 62.953125 2.484375 62.4375 2.84375 C 65.449219 3.492188 68.289063 4.550781 70.730469 6.292969 L 73.117188 8.0625 C 76.617188 10.714844 76.304688 10.964844 78.511719 13.414063 L 80.417969 16.34375 C 78.089844 16.433594 78.714844 16.203125 77.03125 14.886719 C 73.730469 12.304688 64.734375 12.320313 61.285156 13.746094 C 57.753906 15.207031 54.476563 17.308594 52.382813 20.507813 C 53.675781 20.152344 54.1875 19.328125 55.171875 18.753906 C 58.113281 17.035156 61.660156 16.117188 64.933594 15.351563 C 69.363281 14.316406 73.484375 14.5625 77.660156 16.675781 C 77.589844 16.722656 77.492188 16.777344 77.445313 16.800781 L 76.765625 17.148438 C 74.90625 17.933594 73.199219 17.808594 71.019531 17.5 C 66.5 16.867188 61.289063 17.699219 57.054688 19.578125 C 54.9375 20.519531 51.902344 22.496094 50.636719 24.296875 C 53.632813 23.621094 59.628906 19.011719 69.660156 19.117188 C 67.246094 21.226563 60.824219 21.273438 57.695313 22.320313 L 49.691406 26.082031 C 49.160156 26.453125 47.359375 28.171875 48.742188 27.789063 L 50.003906 27.128906 C 52.636719 25.796875 55.304688 24.71875 58.183594 24.183594 L 59.105469 24.242188 C 59.140625 24.164063 59.265625 24.289063 59.332031 24.335938 C 57.378906 25.117188 56.339844 25.472656 54.796875 26.683594 L 45.195313 34.402344 C 44.796875 34.789063 44.722656 34.875 44.3125 35.25 L 38.449219 41.503906 C 37.871094 42.191406 37.449219 42.664063 36.867188 43.382813 C 35.800781 44.691406 34.941406 45.882813 33.796875 47.238281 L 24.285156 65.429688 C 22.078125 70.824219 21.417969 73.058594 20.394531 78.855469 C 20.222656 79.835938 19.949219 80.601563 19.691406 81.640625 C 19.101563 84.003906 18.144531 90.011719 18.128906 92.15625 C 16.457031 92.207031 15.582031 92.980469 14.414063 93.640625 C 12.820313 94.542969 9.34375 95.714844 9.601563 97.792969 C 10.070313 101.625 13.015625 108.535156 14.742188 112.152344 C 14.875 112.425781 15.015625 112.796875 15.207031 113.058594 C 15.722656 113.769531 15.980469 113.742188 16.675781 114.027344 C 17.203125 114.246094 17.089844 114.117188 17.40625 114.316406 C 17.984375 116.457031 17.957031 119.808594 18.078125 121.265625 C 18.289063 123.761719 18.550781 125.292969 18.898438 128.65625 L 20.367188 138.304688 C 20.820313 142.0625 20.078125 146.003906 19.828125 149.996094 C 19.714844 151.757813 19.738281 151.515625 19.503906 153.074219 C 18.429688 160.230469 16.160156 166.628906 13.917969 173.472656 C 12.558594 177.621094 10.65625 182.476563 9.523438 186.742188 L 5.582031 204.832031 C 4.148438 211.835938 4.722656 217.71875 4.253906 221.3125 C 1.0625 227.382813 1.484375 224.175781 1.910156 237.605469 Z M 1.910156 237.605469 "/>
<path style="fill:none;stroke-width:2.16;stroke-linecap:butt;stroke-linejoin:miter;stroke:rgb(0%,0%,0%);stroke-opacity:1;stroke-miterlimit:4;" d="M 19.101563 466.945313 C 0.898438 430.734375 13.867188 345.382813 38.867188 297.101563 C 46.5625 277.375 49.84375 266.164063 62.304688 247.921875 C 70.976563 235.226563 74.6875 236.164063 86.445313 226.90625 C 106.484375 211.164063 124.960938 209.25 150.3125 213.78125 C 163.203125 216.085938 166.289063 218.742188 177.773438 220.96875 C 201.289063 173.351563 252.265625 145.421875 294.921875 176.710938 L 309.53125 189.71875 C 319.21875 199.679688 320.351563 206.710938 324.21875 221.789063 L 329.84375 238.625 C 335.9375 250.851563 334.804688 244.953125 346.601563 246.554688 L 376.25 258.195313 C 412.539063 281.59375 442.148438 327.414063 440.351563 372.53125 C 439.375 396.789063 431.875 412.648438 419.6875 429.015625 C 431.835938 426.203125 421.484375 429.835938 429.882813 425.03125 L 435.9375 420.65625 C 459.0625 404.445313 492.96875 390.890625 518.671875 378.585938 L 553.085938 364.484375 C 592.8125 349.171875 570.15625 369.953125 580.703125 290.226563 C 587.421875 239.445313 590.898438 242.375 613.867188 210.890625 L 606.757813 207.6875 C 603.28125 206.164063 601.796875 205.617188 599.492188 204.5625 C 571.289063 191.828125 562.578125 186.046875 544.6875 166.085938 L 539.609375 160.695313 C 539.101563 160.148438 538.398438 159.40625 537.890625 158.859375 L 534.609375 155.226563 C 534.492188 155.070313 530.3125 150.226563 529.84375 149.601563 C 497.34375 109.015625 500.585938 32.414063 526.992188 19.914063 L 544.648438 13.507813 L 686.757813 13.507813 L 760.117188 26.945313 C 784.609375 33.546875 858.4375 50.890625 872.695313 66.476563 C 883.164063 77.882813 880.703125 94.914063 880.703125 114.09375 C 880.664063 149.015625 885.234375 161.476563 883.984375 207.492188 C 914.492188 221.828125 928.59375 233.273438 929.257813 307.648438 L 970.46875 307.765625 C 971.679688 249.25 975.78125 229.835938 1015.117188 207.0625 C 1015.9375 190.03125 1014.726563 172.648438 1015.976563 155.8125 C 1016.953125 142.257813 1019.21875 138.039063 1019.101563 113.976563 C 1018.75 46.945313 1037.617188 57.882813 1091.328125 40.5 L 1118.515625 32.726563 C 1126.953125 31.085938 1118.28125 33 1126.640625 30.617188 C 1134.296875 28.429688 1135.3125 28.3125 1146.210938 26.28125 L 1209.414063 13.507813 L 1348.554688 13.507813 C 1368.164063 26.28125 1380.078125 0.929688 1390.742188 56.632813 C 1399.0625 100.148438 1388.359375 129.210938 1360.429688 160.695313 L 1357.226563 164.445313 C 1356.757813 165.03125 1356.171875 165.851563 1355.703125 166.4375 C 1336.992188 190.03125 1316.679688 196.476563 1285.820313 210.421875 L 1315.625 270.8125 C 1315.703125 271.359375 1315.859375 272.375 1315.976563 272.921875 C 1326.054688 328.664063 1319.882813 321.945313 1321.914063 347.882813 C 1321.992188 348.664063 1322.265625 350.890625 1322.382813 351.59375 C 1323.632813 358.351563 1346.796875 365.265625 1363.554688 372.101563 L 1476.445313 428.976563 C 1472.109375 414.054688 1471.171875 422.453125 1465.195313 401.554688 C 1458.164063 376.867188 1457.265625 366.476563 1463.515625 343.625 C 1468.007813 327.101563 1465.9375 326.632813 1473.632813 312.335938 C 1490.585938 280.96875 1526.40625 245.5 1569.765625 245.460938 C 1570.546875 233.664063 1573.75 228.820313 1576.953125 218.15625 C 1581.171875 204.171875 1580.273438 201.359375 1590.234375 189.796875 L 1595.273438 184.40625 C 1621.835938 158.742188 1668.4375 160.304688 1690.78125 179.796875 L 1694.21875 183.3125 C 1694.453125 183.546875 1697.929688 187.570313 1699.101563 188.859375 C 1711.445313 202.453125 1712.851563 202.960938 1721.796875 221.359375 C 1731.640625 219.25 1739.257813 216.242188 1748.554688 213.664063 C 1765.117188 209.054688 1794.296875 211.90625 1815.351563 228.3125 C 1815.898438 228.742188 1816.679688 229.40625 1817.226563 229.835938 C 1847.695313 253.820313 1854.101563 271.125 1864.140625 311.671875 C 1870.664063 338.15625 1880.195313 394.132813 1876.953125 423.78125 C 1873.90625 451.242188 1892.617188 449.757813 1907.539063 482.570313 L 1919.453125 508.507813 L 1919.453125 571.320313 C 1910.273438 578.273438 1913.242188 578.898438 1906.40625 589.09375 L 1893.554688 603.898438 C 1879.296875 616.59375 1872.5 615.304688 1856.953125 622.84375 C 1858.359375 691.085938 1855.898438 739.640625 1842.734375 802.101563 L 1807.8125 961.320313 C 1789.0625 1061.359375 1722.1875 1173.703125 1703.4375 1326.28125 C 1696.71875 1380.851563 1690.507813 1425.890625 1699.648438 1476.828125 L 1721.367188 1652.375 C 1722.8125 1668.3125 1718.789063 1693.234375 1728.28125 1700.578125 C 1744.804688 1713.390625 1737.070313 1681.90625 1772.109375 1767.453125 C 1777.96875 1781.710938 1781.445313 1792.6875 1786.601563 1808.429688 C 1793.90625 1830.539063 1815.859375 1870.617188 1791.40625 1886.828125 C 1773.203125 1898.898438 1741.132813 1919.40625 1718.671875 1921.554688 C 1717.929688 1963.351563 1708.359375 1996.4375 1700.234375 2036.125 C 1698.90625 2042.570313 1700.117188 2038.429688 1698.085938 2046.671875 C 1695.117188 2058.898438 1695.585938 2061.90625 1693.476563 2076.320313 C 1688.242188 2112.804688 1672.5 2150.109375 1658.90625 2183.703125 C 1648.476563 2209.523438 1640.273438 2234.328125 1625.898438 2258 C 1620.742188 2266.515625 1618.75 2270.96875 1613.671875 2280.382813 C 1608.632813 2289.796875 1605.429688 2293.507813 1600.898438 2302.296875 L 1576.054688 2350.1875 C 1567.890625 2365.265625 1556.328125 2376.046875 1546.210938 2389.445313 C 1510.585938 2436.359375 1471.289063 2480.890625 1425.976563 2518.664063 L 1410.585938 2531.007813 C 1410 2531.4375 1409.21875 2532.101563 1408.671875 2532.53125 L 1395.117188 2543.3125 C 1394.53125 2543.78125 1393.789063 2544.445313 1393.242188 2544.914063 L 1347.265625 2578.429688 C 1333.59375 2589.484375 1315.625 2593.507813 1302.8125 2603.507813 C 1313.945313 2602.6875 1325.78125 2599.054688 1337.773438 2596.632813 C 1363.632813 2591.476563 1399.921875 2564.40625 1424.335938 2561.828125 C 1420.117188 2574.289063 1388.359375 2592.804688 1375.859375 2596.789063 C 1353.320313 2603.976563 1342.1875 2613.390625 1320.078125 2620.539063 C 1309.609375 2623.898438 1204.882813 2642.023438 1201.71875 2650.8125 C 1201.367188 2651.828125 1200.117188 2651.398438 1199.414063 2651.828125 C 1245.78125 2651.867188 1273.554688 2644.5625 1303.828125 2635.5 C 1335.664063 2626.007813 1365.898438 2613.390625 1393.242188 2596.75 C 1391.054688 2615.96875 1397.8125 2599.914063 1383.828125 2611.671875 L 1341.367188 2642.023438 C 1331.71875 2646.90625 1318.164063 2651.867188 1306.484375 2655.773438 C 1234.375 2679.796875 1173.59375 2661.164063 1155.898438 2665.148438 C 1145.585938 2667.453125 1132.109375 2669.835938 1123.242188 2676.28125 L 1153.164063 2688.117188 C 1201.523438 2702.375 1263.789063 2691.242188 1315.390625 2671.476563 C 1335.507813 2663.78125 1363.164063 2642.335938 1368.945313 2644.914063 C 1370.898438 2651.046875 1372.5 2643.390625 1367.03125 2650.539063 L 1348.125 2669.40625 C 1311.484375 2708.742188 1248.203125 2719.953125 1195.273438 2713.117188 C 1190.234375 2712.453125 1166.601563 2711.203125 1156.953125 2708.15625 C 1114.882813 2694.835938 1129.804688 2677.335938 1095.234375 2679.601563 L 1120.429688 2717.0625 C 1167.8125 2783.9375 1257.1875 2806.398438 1275.46875 2818.234375 C 1220.78125 2818.859375 1155.351563 2797.140625 1120.742188 2754.601563 C 1120.742188 2754.601563 1116.210938 2749.367188 1115.9375 2749.054688 L 1071.796875 2685.65625 C 1071.523438 2685.617188 1070.546875 2685.34375 1070.234375 2685.304688 C 1069.570313 2685.226563 1067.460938 2685.148438 1066.640625 2685.1875 L 1036.71875 2687.21875 C 1042.109375 2714.367188 1063.085938 2731.007813 1071.484375 2759.601563 C 1037.851563 2736.90625 1036.210938 2727.375 1019.140625 2689.914063 C 998.085938 2691.046875 1001.953125 2692.296875 999.882813 2696.867188 C 995.820313 2705.8125 1022.578125 2810.109375 1029.453125 2825.34375 C 1032.148438 2831.28125 1033.867188 2836.75 1036.640625 2842.492188 L 1029.570313 2842.492188 C 1022.34375 2829.875 1013.242188 2820.421875 1008.90625 2804.289063 C 1004.414063 2787.726563 999.921875 2776.867188 995.117188 2762.492188 C 972.851563 2695.890625 995.546875 2693.234375 963.789063 2693.898438 C 963.789063 2746.828125 937.421875 2800.8125 908.398438 2842.492188 L 891.445313 2842.492188 C 891.523438 2829.5625 892.148438 2831.828125 898.59375 2822.570313 C 905.234375 2813.039063 901.601563 2820.070313 907.539063 2806.90625 C 913.632813 2793.273438 918.398438 2785.65625 924.179688 2771.789063 C 931.40625 2754.484375 948.203125 2710.34375 949.960938 2693.742188 L 922.226563 2693.742188 C 911.992188 2711.59375 900.117188 2741.828125 884.6875 2756.554688 C 883.007813 2758.15625 872.382813 2766.164063 869.140625 2768.742188 L 831.09375 2789.367188 C 823.125 2791.671875 835.3125 2786.515625 825.117188 2790.773438 C 829.492188 2777.726563 861.5625 2747.921875 872.1875 2737.101563 L 911.679688 2694.132813 C 892.851563 2693.117188 882.773438 2691.632813 864.335938 2689.171875 C 852.34375 2687.609375 830.820313 2685.890625 825.703125 2683.429688 C 817.539063 2709.09375 802.539063 2725.65625 786.875 2745.1875 L 782.304688 2751.085938 C 752.148438 2790.890625 701.289063 2806.4375 653.632813 2816.28125 L 631.953125 2817.375 C 623.398438 2815.773438 629.53125 2818.15625 624.375 2814.5625 C 654.492188 2808.078125 682.890625 2797.492188 707.304688 2780.070313 L 731.171875 2762.375 C 766.171875 2735.851563 763.046875 2733.351563 785.117188 2708.859375 L 804.179688 2679.5625 C 780.898438 2678.664063 787.148438 2680.96875 770.3125 2694.132813 C 737.304688 2719.953125 647.34375 2719.796875 612.851563 2705.539063 C 577.539063 2690.929688 544.765625 2669.914063 523.828125 2637.921875 C 536.757813 2641.476563 541.875 2649.71875 551.71875 2655.460938 C 581.132813 2672.648438 616.601563 2681.828125 649.335938 2689.484375 C 693.632813 2699.835938 734.84375 2697.375 776.601563 2676.242188 C 775.898438 2675.773438 774.921875 2675.226563 774.453125 2674.992188 L 767.65625 2671.515625 C 749.0625 2663.664063 731.992188 2664.914063 710.195313 2668 C 665 2674.328125 612.890625 2666.007813 570.546875 2647.21875 C 549.375 2637.804688 519.023438 2618.039063 506.367188 2600.03125 C 536.328125 2606.789063 596.289063 2652.882813 696.601563 2651.828125 C 672.460938 2630.734375 608.242188 2630.265625 576.953125 2619.796875 L 496.914063 2582.179688 C 491.601563 2578.46875 473.59375 2561.28125 487.421875 2565.109375 L 500.039063 2571.710938 C 526.367188 2585.03125 553.046875 2595.8125 581.835938 2601.164063 L 591.054688 2600.578125 C 591.40625 2601.359375 592.65625 2600.109375 593.320313 2599.640625 C 573.789063 2591.828125 563.398438 2588.273438 547.96875 2576.164063 L 451.953125 2498.976563 C 447.96875 2495.109375 447.226563 2494.25 443.125 2490.5 L 384.492188 2427.960938 C 378.710938 2421.085938 374.492188 2416.359375 368.671875 2409.171875 C 358.007813 2396.085938 349.414063 2384.171875 337.96875 2370.617188 L 242.851563 2188.703125 C 220.78125 2134.757813 214.179688 2112.414063 203.945313 2054.445313 C 202.226563 2044.640625 199.492188 2036.984375 196.914063 2026.59375 C 191.015625 2002.960938 181.445313 1942.882813 181.289063 1921.4375 C 164.570313 1920.929688 155.820313 1913.195313 144.140625 1906.59375 C 128.203125 1897.570313 93.4375 1885.851563 96.015625 1865.070313 C 100.703125 1826.75 130.15625 1757.648438 147.421875 1721.476563 C 148.75 1718.742188 150.15625 1715.03125 152.070313 1712.414063 C 157.226563 1705.304688 159.804688 1705.578125 166.757813 1702.726563 C 172.03125 1700.539063 170.898438 1701.828125 174.0625 1699.835938 C 179.84375 1678.429688 179.570313 1644.914063 180.78125 1630.34375 C 182.890625 1605.382813 185.507813 1590.070313 188.984375 1556.4375 L 203.671875 1459.953125 C 208.203125 1422.375 200.78125 1382.960938 198.28125 1343.039063 C 197.148438 1325.421875 197.382813 1327.84375 195.039063 1312.257813 C 184.296875 1240.695313 161.601563 1176.710938 139.179688 1108.273438 C 125.585938 1066.789063 106.5625 1018.234375 95.234375 975.578125 L 55.820313 794.679688 C 41.484375 724.640625 47.226563 665.8125 42.539063 629.875 C 10.625 569.171875 14.84375 601.242188 19.101563 466.945313 Z M 19.101563 466.945313 " transform="matrix(0.1,0,0,-0.1,0,284.3)"/>
<path style="fill-rule:evenodd;fill:rgb(57.617188%,58.396912%,59.568787%);fill-opacity:1;stroke-width:2.16;stroke-linecap:butt;stroke-linejoin:miter;stroke:rgb(0%,0%,0%);stroke-opacity:1;stroke-miterlimit:4;" d="M 341.992188 1888.703125 C 341.992188 1823.273438 359.726563 1763.703125 401.132813 1715.96875 C 406.210938 1710.109375 403.320313 1712.53125 409.414063 1706.789063 L 421.601563 1698.078125 C 451.640625 1678.976563 463.164063 1650.929688 546.132813 1635.890625 C 567.148438 1632.0625 593.476563 1631.515625 618.945313 1632.726563 C 663.28125 1634.835938 710.9375 1653.507813 750.898438 1673.390625 C 806.171875 1700.890625 853.59375 1744.757813 889.648438 1794.640625 C 911.992188 1825.539063 927.148438 1859.132813 939.53125 1896.867188 C 943.164063 1907.921875 945.859375 1913.507813 948.59375 1925.070313 C 950.820313 1934.679688 952.382813 1941.007813 958.476563 1947.257813 C 969.804688 1923.859375 977.460938 1890.773438 988.28125 1866.75 C 992.65625 1857.0625 995.15625 1849.015625 1000 1840.617188 C 1017.929688 1809.40625 1037.65625 1776.75 1063.164063 1751.164063 L 1110.195313 1708.351563 C 1139.609375 1685.03125 1189.101563 1657.414063 1253.164063 1639.914063 C 1267.617188 1635.96875 1282.8125 1633.039063 1304.257813 1632.570313 C 1389.570313 1630.734375 1437.890625 1651.242188 1499.921875 1700.265625 C 1535.976563 1728.742188 1556.640625 1778.234375 1568.90625 1821.75 C 1584.296875 1876.398438 1568.242188 1961.125 1547.734375 2007.375 C 1538.476563 2028.273438 1531.992188 2036.828125 1519.804688 2055.617188 C 1513.476563 2065.382813 1511.796875 2069.523438 1504.84375 2078.625 L 1472.890625 2119.328125 C 1472.304688 2120.1875 1470.664063 2122.648438 1470.039063 2123.429688 C 1469.570313 2124.015625 1468.90625 2124.796875 1468.4375 2125.34375 L 1454.84375 2139.25 C 1424.335938 2169.132813 1350.820313 2217.0625 1314.921875 2228 C 1241.601563 2250.34375 1156.875 2233.273438 1090.390625 2196.320313 L 1022.226563 2146.710938 C 976.71875 2104.640625 977.8125 2061.632813 959.492188 2019.171875 C 959.296875 2018.664063 958.828125 2017.609375 958.359375 2016.867188 C 954.375 2032.179688 946.367188 2058.3125 940.9375 2072.179688 C 923.046875 2117.726563 894.414063 2148.976563 856.328125 2178.039063 C 783.515625 2233.664063 668.789063 2254.992188 581.835938 2220.070313 C 556.015625 2209.71875 532.148438 2193.625 510.507813 2177.101563 L 467.1875 2144.328125 C 463.710938 2141.789063 461.796875 2140.1875 457.851563 2136.359375 L 448.007813 2125.421875 C 441.015625 2116.046875 438.984375 2112.609375 431.640625 2103.820313 C 425.390625 2096.359375 420.078125 2089.953125 414.6875 2082.492188 L 398.75 2060.382813 C 365.195313 2007.179688 342.109375 1960.5 341.992188 1888.703125 Z M 643.164063 2186.515625 C 620.976563 2183.117188 615.195313 2184.914063 588.710938 2175.265625 C 587.890625 2174.992188 586.992188 2174.640625 586.171875 2174.328125 L 581.328125 2172.21875 C 553.789063 2160.304688 556.054688 2157.023438 533.085938 2147.648438 L 485.351563 2112.414063 C 462.539063 2093.15625 440.546875 2058.9375 424.960938 2034.132813 C 411.40625 2012.53125 401.914063 1988.351563 394.179688 1964.40625 L 384.023438 1918.898438 C 378.789063 1858.546875 390.117188 1805.304688 428.945313 1757.492188 L 435.351563 1750.070313 C 450.234375 1730.96875 467.773438 1706.90625 501.367188 1698.390625 C 511.054688 1695.929688 506.875 1697.648438 515.039063 1694.71875 C 523.671875 1691.671875 529.882813 1688.46875 540.742188 1685.773438 C 618.398438 1666.75 647.265625 1683.703125 700.273438 1696.476563 C 737.734375 1705.460938 767.578125 1727.53125 795.15625 1754.09375 L 820.742188 1780.226563 C 878.554688 1842.414063 895.195313 1879.5625 903.945313 1959.445313 C 911.484375 2028.273438 887.734375 2084.601563 832.539063 2133.390625 L 768.007813 2169.445313 C 758.984375 2172.804688 752.578125 2175.265625 742.109375 2178.195313 C 710.507813 2186.984375 709.53125 2186.242188 681.875 2188.78125 C 677.226563 2189.210938 673.554688 2189.875 667.34375 2190.03125 L 644.53125 2187.140625 C 644.335938 2187.0625 643.671875 2186.59375 643.164063 2186.515625 Z M 1220.742188 2186.828125 C 1197.695313 2183.429688 1185.976563 2182.179688 1165.898438 2176.203125 C 1156.523438 2173.429688 1153.007813 2172.492188 1143.164063 2167.882813 C 1135.46875 2164.289063 1137.578125 2164.953125 1132.265625 2161.4375 C 1124.101563 2156.007813 1131.328125 2159.875 1121.679688 2154.835938 C 1121.015625 2154.445313 1120.117188 2154.015625 1119.414063 2153.664063 C 1099.53125 2143.859375 1102.773438 2149.640625 1080.507813 2130.109375 C 1067.539063 2118.703125 1057.1875 2109.015625 1046.835938 2094.40625 C 1023.203125 2061.046875 1017.8125 2047.492188 1012.929688 1996.476563 C 1011.40625 1980.8125 1010.546875 1930.851563 1022.460938 1897.570313 C 1033.4375 1866.867188 1049.257813 1834.015625 1068.085938 1811.515625 C 1070.859375 1808.195313 1071.523438 1807.53125 1074.53125 1804.09375 L 1106.953125 1767.21875 C 1107.421875 1766.710938 1108.164063 1766.007813 1108.671875 1765.5 C 1109.140625 1764.992188 1109.882813 1764.289063 1110.390625 1763.820313 C 1144.101563 1731.554688 1161.757813 1712.921875 1219.570313 1696.515625 C 1258.710938 1685.34375 1276.40625 1674.679688 1328.789063 1677.53125 C 1349.101563 1678.664063 1404.960938 1691.59375 1427.304688 1703.390625 C 1457.773438 1719.484375 1477.96875 1741.984375 1496.601563 1769.445313 C 1501.953125 1777.335938 1503.671875 1780.890625 1507.8125 1789.367188 L 1523.671875 1822.0625 C 1545.039063 1895.695313 1528.164063 1985.421875 1488.710938 2038.078125 C 1482.34375 2046.632813 1479.375 2049.367188 1474.960938 2059.132813 C 1466.367188 2078.117188 1459.296875 2083.117188 1446.5625 2096.554688 L 1427.539063 2115.460938 C 1391.328125 2146.984375 1401.601563 2135.851563 1369.140625 2154.171875 C 1351.875 2163.898438 1358.75 2164.640625 1325.390625 2176.28125 C 1302.8125 2184.171875 1250.117188 2194.289063 1223.90625 2187.804688 Z M 1598.945313 1892.140625 C 1599.023438 1861.984375 1598.632813 1826.046875 1588.125 1805.5 C 1612.148438 1794.679688 1634.570313 1785.578125 1658.671875 1775.421875 L 1730.273438 1743.585938 C 1739.960938 1761.242188 1768.828125 1840.382813 1778.945313 1857.335938 L 1595.507813 1937.0625 C 1595.429688 1914.210938 1598.90625 1917.453125 1598.945313 1892.140625 Z M 137.8125 1857.296875 L 181.835938 1752.84375 C 184.53125 1748.039063 183.789063 1749.40625 186.054688 1746.789063 C 200.976563 1748.390625 271.679688 1782.179688 291.796875 1789.992188 C 304.492188 1794.875 317.265625 1799.484375 327.539063 1805.773438 C 315.703125 1835.773438 312.8125 1916.554688 324.609375 1936.710938 C 313.554688 1934.523438 311.25 1933 301.484375 1929.015625 C 289.84375 1924.289063 286.40625 1925.226563 274.414063 1921.59375 C 254.0625 1915.421875 204.335938 1889.367188 184.023438 1880.421875 C 173.515625 1875.8125 169.609375 1872.570313 161.171875 1868.507813 C 151.796875 1863.976563 146.015625 1862.0625 137.8125 1857.296875 Z M 137.8125 1857.296875 " transform="matrix(0.1,0,0,-0.1,0,284.3)"/>
<path style="fill-rule:evenodd;fill:rgb(100%,100%,100%);fill-opacity:1;stroke-width:2.16;stroke-linecap:butt;stroke-linejoin:miter;stroke:rgb(0%,0%,0%);stroke-opacity:1;stroke-miterlimit:4;" d="M 1311.445313 1698.3125 C 1357.773438 1698.273438 1368.007813 1698.351563 1408.90625 1718.585938 C 1409.648438 1718.9375 1410.546875 1719.367188 1411.25 1719.71875 C 1446.289063 1737.492188 1463.242188 1753.820313 1480.9375 1785.148438 C 1503.007813 1824.289063 1511.875 1839.09375 1512.226563 1892.140625 C 1512.617188 1954.679688 1498.046875 1973.273438 1477.109375 2019.71875 L 1423.28125 2090.421875 C 1405.78125 2108.15625 1388.164063 2120.96875 1368.476563 2136.125 C 1310.273438 2180.851563 1225.351563 2177.53125 1161.484375 2152.726563 C 1127.890625 2139.679688 1122.773438 2137.335938 1092.03125 2111.554688 C 1091.445313 2111.085938 1090.664063 2110.421875 1090.117188 2109.953125 L 1037.539063 2032.101563 C 1014.21875 1970.851563 1046.640625 1871.242188 1089.492188 1819.09375 L 1136.132813 1768.78125 C 1164.21875 1741.046875 1196.09375 1727.101563 1231.875 1712.101563 C 1259.804688 1700.382813 1273.75 1698.195313 1311.445313 1698.3125 Z M 643.242188 2169.25 C 596.601563 2162.257813 617.421875 2168 572.304688 2149.875 L 554.570313 2140.03125 C 502.265625 2102.375 497.1875 2097.960938 456.25 2047.726563 C 428.90625 2014.210938 411.171875 1961.046875 405.15625 1919.132813 C 395 1848.703125 420.078125 1815.65625 443.632813 1772.414063 C 451.40625 1758.078125 461.640625 1748.664063 473.398438 1739.757813 C 498.984375 1720.34375 522.890625 1709.367188 553.4375 1701.867188 C 622.96875 1684.796875 699.101563 1708.546875 755.078125 1749.09375 C 798.046875 1780.1875 776.015625 1767.335938 806.679688 1797.84375 C 837.148438 1828.15625 864.023438 1869.40625 875.820313 1914.757813 C 877.695313 1922.023438 875.976563 1916.515625 877.8125 1922.648438 L 883.789063 1951.984375 C 889.335938 1997.882813 883.710938 2024.71875 868.203125 2055.03125 C 857.890625 2075.148438 846.5625 2089.523438 831.328125 2104.757813 C 830.820313 2105.265625 830.117188 2105.96875 829.609375 2106.4375 C 829.101563 2106.945313 828.320313 2107.609375 827.8125 2108.078125 C 817.578125 2117.453125 785.664063 2142.960938 773.554688 2147.140625 C 764.335938 2150.34375 759.84375 2149.992188 749.414063 2154.132813 C 740.507813 2157.648438 733.671875 2159.601563 725.9375 2161.789063 C 710.234375 2166.28125 664.414063 2173.703125 647.578125 2170.617188 Z M 694.960938 2048.195313 C 666.875 2043.429688 648.632813 2034.445313 630.078125 2012.609375 C 623.28125 2004.640625 615.859375 1988.898438 612.03125 1978.859375 C 592.929688 1928.351563 630.742188 1870.65625 675.703125 1858.742188 C 689.570313 1855.070313 711.25 1856.359375 724.375 1859.328125 C 737.8125 1862.335938 748.632813 1866.75 759.179688 1873.273438 C 771.796875 1881.046875 777.773438 1886.085938 785.195313 1898.898438 C 807.226563 1936.710938 813.90625 1962.726563 791.992188 2002.960938 L 783.59375 2018.585938 C 772.929688 2036.242188 753.242188 2041.007813 732.734375 2047.726563 C 720.585938 2051.671875 715.117188 2053 701.40625 2050.265625 Z M 1193.867188 2047.921875 C 1183.90625 2045.460938 1185.390625 2049.328125 1172.695313 2044.601563 C 1168.007813 2042.882813 1161.132813 2039.953125 1155.546875 2037.53125 L 1148.59375 2034.171875 C 1124.609375 2019.757813 1095.234375 1961.59375 1125.742188 1907.335938 C 1134.6875 1891.398438 1135.234375 1889.796875 1151.601563 1877.84375 L 1155.585938 1874.914063 C 1156.210938 1874.523438 1157.03125 1873.898438 1157.65625 1873.507813 L 1184.140625 1861.710938 C 1261.914063 1836.125 1322.304688 1910.03125 1307.65625 1964.445313 L 1299.335938 1990.8125 C 1298.90625 1991.789063 1297.578125 1994.5625 1297.109375 1995.5 C 1287.734375 2014.992188 1274.453125 2028.898438 1255.46875 2037.101563 C 1254.6875 2037.453125 1253.75 2037.765625 1252.96875 2038.117188 L 1241.015625 2043.429688 C 1218.320313 2052.140625 1213.867188 2052.882813 1193.867188 2047.921875 Z M 705.585938 2034.09375 C 684.414063 2030.578125 680.390625 2035.539063 649.296875 2003.820313 C 591.40625 1944.679688 642.890625 1872.335938 705.390625 1874.679688 C 727.96875 1875.539063 753.789063 1890.109375 765.3125 1901.554688 C 768.90625 1905.148438 781.5625 1920.929688 783.164063 1925.226563 C 795.976563 1959.484375 784.414063 2018.742188 734.960938 2032.492188 L 711.328125 2035.8125 C 710.625 2035.734375 708.789063 2035.34375 708.28125 2035.226563 Z M 688.164063 1923.117188 C 707.65625 1923.15625 725.117188 1918.976563 736.640625 1944.445313 C 758.984375 1993.859375 686.992188 2014.171875 672.5 1977.0625 C 664.453125 1956.515625 669.609375 1923.117188 688.164063 1923.117188 Z M 1197.382813 2034.054688 C 1178.320313 2031.046875 1174.101563 2032.375 1159.023438 2020.382813 L 1141.601563 2003.117188 C 1127.773438 1984.875 1129.257813 1958.234375 1130.9375 1940.460938 C 1133.28125 1916.359375 1147.421875 1900.929688 1166.679688 1889.40625 C 1181.5625 1880.5 1211.601563 1869.953125 1236.640625 1876.90625 C 1273.515625 1887.101563 1304.21875 1932.804688 1288.242188 1972.570313 C 1280.273438 1992.453125 1264.257813 2008.3125 1249.414063 2020.5 C 1248.867188 2020.929688 1248.125 2021.632813 1247.539063 2022.0625 C 1239.648438 2028.15625 1251.992188 2019.484375 1243.554688 2024.953125 L 1221.328125 2034.09375 C 1204.960938 2038.078125 1203.90625 2035.070313 1197.382813 2034.015625 Z M 1235.507813 1923.039063 C 1243.4375 1935.1875 1244.492188 1928.507813 1245.898438 1947.414063 C 1246.679688 1957.648438 1246.914063 1972.101563 1242.929688 1979.484375 C 1236.25 1991.828125 1209.921875 2002.648438 1191.875 1991.125 C 1167.382813 1975.421875 1175.625 1931.632813 1198.476563 1924.523438 C 1209.335938 1921.164063 1223.828125 1923.195313 1235.507813 1923.039063 Z M 1235.507813 1923.039063 " transform="matrix(0.1,0,0,-0.1,0,284.3)"/>
<path style="fill-rule:evenodd;fill:rgb(100%,94.921875%,0%);fill-opacity:1;stroke-width:2.16;stroke-linecap:butt;stroke-linejoin:miter;stroke:rgb(0%,0%,0%);stroke-opacity:1;stroke-miterlimit:4;" d="M 328.59375 1770.1875 L 304.6875 1759.210938 C 295.546875 1754.71875 289.453125 1752.804688 280.46875 1748.625 L 228.867188 1727.023438 C 217.460938 1721.867188 218.59375 1719.484375 218.867188 1712.53125 L 225.117188 1573.898438 C 226.523438 1558.351563 223.710938 1518 232.382813 1497.492188 C 246.09375 1465.109375 301.171875 1384.71875 326.09375 1359.484375 L 393.4375 1298.664063 C 411.484375 1284.171875 445.078125 1254.289063 464.960938 1245.460938 C 476.601563 1240.265625 479.0625 1240.070313 488.320313 1234.289063 L 558.75 1193.898438 C 575.117188 1185.8125 586.054688 1182.921875 590.117188 1166.28125 C 592.382813 1156.945313 601.171875 1156.59375 610.625 1152.257813 C 618.554688 1148.585938 623.515625 1145.851563 631.992188 1142.53125 C 692.265625 1118.859375 804.921875 1100.929688 870.859375 1094.25 C 999.804688 1081.203125 1149.101563 1094.132813 1280.742188 1129.289063 C 1301.40625 1134.796875 1310.742188 1133.46875 1328.398438 1143.3125 L 1311.445313 1167.6875 C 1322.070313 1187.804688 1330.78125 1185.421875 1351.015625 1197.570313 C 1404.335938 1229.484375 1433.59375 1238.9375 1482.460938 1277.335938 L 1524.765625 1311.164063 C 1527.695313 1313.703125 1527.8125 1313.703125 1530.390625 1315.96875 L 1576.71875 1359.679688 C 1594.453125 1376.320313 1610.3125 1401.242188 1623.203125 1420.578125 C 1640.585938 1446.710938 1670.46875 1478.742188 1674.84375 1510.773438 L 1683.789063 1715.929688 C 1679.882813 1731.945313 1642.109375 1740.304688 1627.226563 1746.359375 C 1612.34375 1752.453125 1591.445313 1761.046875 1578.28125 1770.070313 C 1557.617188 1745.382813 1555.039063 1717.609375 1525.820313 1690.890625 C 1513.867188 1679.953125 1505.195313 1671.4375 1491.289063 1659.757813 C 1426.054688 1604.875 1318.867188 1587.023438 1240.234375 1608.46875 C 1170.703125 1627.414063 1119.179688 1655.96875 1064.179688 1699.210938 L 1048.398438 1714.640625 C 1007.421875 1755.851563 979.21875 1805.65625 951.210938 1856.28125 C 936.328125 1833.742188 934.335938 1818.625 902.070313 1774.5625 C 895.429688 1765.5 895.976563 1764.757813 890.507813 1755.148438 L 840.546875 1700.96875 L 783.476563 1661.164063 C 773.945313 1654.484375 774.726563 1652.492188 763.476563 1646.4375 C 693.203125 1608.625 612.734375 1590.5 527.890625 1605.851563 C 497.96875 1611.28125 462.304688 1621.945313 437.382813 1640.34375 C 436.5625 1640.929688 434.335938 1642.804688 433.515625 1643.429688 C 409.257813 1662.570313 385.742188 1680.109375 365.742188 1703.664063 C 351.679688 1720.1875 332.539063 1748.195313 328.59375 1770.1875 Z M 703.476563 1527.84375 C 674.023438 1526.671875 630.117188 1516.90625 600.664063 1515.695313 C 686.484375 1563.859375 700.273438 1559.875 793.632813 1568 C 772.617188 1557.765625 751.5625 1547.570313 730.507813 1537.335938 C 896.015625 1505.539063 1065.195313 1503.585938 1235.507813 1510.265625 C 1064.375 1479.171875 881.875 1459.328125 703.476563 1527.84375 Z M 703.476563 1527.84375 " transform="matrix(0.1,0,0,-0.1,0,284.3)"/>
<path style="fill-rule:evenodd;fill:rgb(100%,94.921875%,0%);fill-opacity:1;stroke-width:2.16;stroke-linecap:butt;stroke-linejoin:miter;stroke:rgb(0%,0%,0%);stroke-opacity:1;stroke-miterlimit:4;" d="M 834.0625 2650.109375 C 837.382813 2640.851563 837.1875 2629.5625 833.671875 2621.789063 L 827.304688 2632.726563 C 825.195313 2638.15625 824.84375 2640.851563 823.632813 2646.476563 C 791.914063 2643.9375 760.78125 2624.015625 729.921875 2622.101563 L 733.125 2615.578125 C 734.609375 2610.03125 736.445313 2616.046875 733.359375 2607.921875 C 699.140625 2624.679688 583.4375 2558.78125 551.992188 2529.992188 C 551.445313 2529.523438 550.742188 2528.78125 550.234375 2528.273438 C 548.945313 2527.0625 548.203125 2526.125 544.84375 2523.117188 C 541.796875 2520.421875 536.132813 2516.164063 533.164063 2513.976563 L 428.671875 2414.171875 C 426.132813 2410.890625 422.460938 2406.75 419.257813 2402.882813 C 406.796875 2387.726563 396.914063 2375.773438 384.609375 2361.28125 C 361.367188 2333.78125 344.21875 2300.929688 328.4375 2268.664063 L 304.21875 2216.75 C 296.171875 2199.054688 290.429688 2181.828125 282.890625 2161.828125 L 236.367188 1997.21875 C 233.28125 1979.132813 230.351563 1945.617188 224.6875 1932.960938 C 242.773438 1934.679688 263.90625 1946.320313 281.015625 1952.492188 C 292.8125 1956.710938 298.4375 1957.84375 309.21875 1962.414063 C 326.289063 1969.679688 320.820313 1966.945313 326.484375 1983.039063 C 332.148438 1999.09375 338.085938 2016.828125 347.65625 2031.242188 C 348.085938 2031.867188 348.671875 2032.6875 349.101563 2033.3125 C 370.820313 2065.539063 387.03125 2100.03125 413.867188 2127.765625 C 465.507813 2181.164063 530.625 2231.398438 604.726563 2248.585938 C 658.789063 2261.085938 724.257813 2258.078125 779.882813 2239.054688 C 821.210938 2224.875 849.6875 2207.921875 880.507813 2183.976563 C 893.085938 2174.210938 889.453125 2174.40625 899.0625 2164.328125 L 935.820313 2124.992188 C 942.265625 2115.460938 945.859375 2108.039063 951.5625 2099.367188 C 957.8125 2106.28125 960.9375 2114.640625 966.015625 2122.726563 C 968.28125 2126.359375 970.273438 2129.5625 972.773438 2133.15625 C 981.171875 2145.148438 991.5625 2151.59375 1001.875 2162.882813 L 1011.640625 2173.898438 C 1064.6875 2232.648438 1181.484375 2263.585938 1264.609375 2254.015625 C 1312.578125 2248.46875 1358.632813 2229.25 1398.359375 2203 C 1420.742188 2188.234375 1445.664063 2172.0625 1465.46875 2152.53125 L 1520.117188 2089.367188 C 1542.890625 2056.085938 1564.375 2019.640625 1574.335938 1987.765625 C 1583.046875 1959.953125 1593.242188 1963.195313 1619.296875 1953.15625 C 1638.671875 1945.65625 1656.71875 1938.625 1674.960938 1929.835938 C 1676.367188 1983.273438 1653.867188 2064.445313 1637.617188 2116.984375 L 1571.328125 2275.851563 C 1541.71875 2332.375 1502.226563 2380.34375 1463.007813 2430.382813 L 1400.351563 2489.132813 C 1399.804688 2489.5625 1398.984375 2490.226563 1398.4375 2490.65625 L 1383.28125 2503.15625 C 1374.492188 2509.914063 1370.429688 2512.84375 1361.953125 2520.03125 C 1326.640625 2549.992188 1288.046875 2575.460938 1244.179688 2592.609375 C 1205.273438 2607.84375 1205.039063 2611.515625 1159.335938 2608.3125 C 1170.117188 2617.492188 1168.90625 2610.03125 1172.929688 2621.828125 C 1145.078125 2628.429688 1111.992188 2645.929688 1083.125 2645.851563 L 1075.859375 2632.570313 C 1073.242188 2625.617188 1072.8125 2626.359375 1072.890625 2614.914063 L 1066.875 2632.0625 C 1065.859375 2645.617188 1069.140625 2640.695313 1066.015625 2649.40625 C 1045.351563 2658.46875 1017.382813 2655.578125 993.789063 2659.640625 C 991.132813 2645.304688 989.726563 2650.03125 989.765625 2632.335938 L 983.945313 2645.148438 C 983.476563 2652.648438 985.585938 2647.257813 982.890625 2659.914063 C 975.078125 2659.875 970 2659.757813 964.375 2653.9375 C 963.945313 2653.507813 963.28125 2652.257813 962.96875 2651.867188 C 962.617188 2651.476563 962.1875 2650.34375 961.679688 2649.679688 C 961.875 2667.492188 961.679688 2654.835938 958.476563 2659.914063 C 882.5 2660.109375 869.335938 2651.28125 834.0625 2650.109375 Z M 834.0625 2650.109375 " transform="matrix(0.1,0,0,-0.1,0,284.3)"/>
<path style="fill-rule:evenodd;fill:rgb(100%,94.921875%,0%);fill-opacity:1;stroke-width:2.16;stroke-linecap:butt;stroke-linejoin:miter;stroke:rgb(0%,0%,0%);stroke-opacity:1;stroke-miterlimit:4;" d="M 81.640625 785.8125 C 81.71875 759.796875 78.125 734.054688 76.054688 717.101563 C 72.148438 685.03125 71.601563 619.328125 73.28125 597.921875 L 76.484375 547.570313 C 76.914063 541.125 74.179688 537.492188 82.8125 534.25 C 111.875 523.273438 193.359375 522.023438 202.617188 533.039063 L 204.257813 622.21875 C 209.492188 697.882813 216.601563 748.039063 235.117188 819.09375 L 262.070313 911.28125 C 262.226563 911.710938 262.578125 912.648438 262.773438 913.078125 L 272.265625 931.164063 C 272.03125 926.710938 271.25 920.03125 271.015625 916.90625 C 266.757813 866.828125 247.109375 856.828125 319.257813 829.640625 C 323.046875 828.195313 328.984375 826.398438 332.382813 825.460938 C 357.539063 818.351563 384.140625 812.84375 410.234375 820.695313 C 427.734375 825.96875 457.539063 852.453125 462.65625 872.257813 C 472.070313 908.664063 467.929688 995.65625 467.734375 1034.210938 C 467.617188 1057.414063 454.492188 1051.28125 425.976563 1078.273438 L 314.414063 1171.125 C 306.835938 1180.382813 306.328125 1182.609375 297.1875 1191.828125 L 262.5 1229.992188 C 259.414063 1234.210938 257.734375 1237.140625 255.15625 1239.953125 C 248.59375 1247.101563 249.101563 1244.484375 243.984375 1249.601563 C 234.21875 1259.328125 221.796875 1283.703125 213.398438 1294.679688 L 195.46875 1201.867188 C 194.0625 1190.460938 190.78125 1180.890625 186.875 1168.898438 C 156.5625 1076.164063 88.515625 872.0625 81.640625 785.8125 Z M 81.640625 785.8125 " transform="matrix(0.1,0,0,-0.1,0,284.3)"/>
<path style="fill-rule:evenodd;fill:rgb(100%,94.921875%,0%);fill-opacity:1;stroke-width:2.16;stroke-linecap:butt;stroke-linejoin:miter;stroke:rgb(0%,0%,0%);stroke-opacity:1;stroke-miterlimit:4;" d="M 1623.203125 914.875 C 1624.335938 915.226563 1623.945313 923.9375 1633.515625 900.929688 C 1634.6875 898.078125 1636.796875 892.84375 1637.34375 891.203125 C 1655.039063 836.203125 1672.65625 748.78125 1681.289063 687.648438 C 1684.609375 663.9375 1696.210938 553.429688 1685.976563 530.460938 C 1713.164063 524.601563 1796.367188 517.570313 1813.75 534.132813 C 1819.765625 539.914063 1819.414063 659.523438 1818.90625 666.398438 C 1810.820313 779.054688 1808.867188 811.632813 1779.53125 925.851563 C 1777.382813 934.25 1775.9375 938.585938 1774.179688 946.4375 L 1768.75 966.710938 C 1753.828125 1016.867188 1699.492188 1171.632813 1695.976563 1205.773438 L 1678.515625 1292.179688 C 1670.585938 1282.648438 1670.15625 1273.507813 1642.070313 1242.335938 L 1617.96875 1214.484375 C 1617.304688 1213.703125 1615.46875 1211.476563 1614.804688 1210.695313 C 1611.992188 1207.375 1612.34375 1207.765625 1610.039063 1205.148438 C 1606.640625 1201.28125 1605.15625 1199.757813 1601.679688 1196.242188 L 1454.960938 1065.96875 C 1446.484375 1059.875 1442.734375 1058.9375 1434.0625 1051.90625 C 1422.8125 1042.765625 1424.335938 1044.445313 1424.140625 1035.1875 C 1423.007813 979.054688 1412.773438 878.195313 1445.039063 843.898438 C 1469.570313 817.765625 1501.640625 809.757813 1537.65625 817.375 L 1577.734375 829.09375 C 1646.5625 858.351563 1621.640625 863.15625 1622.460938 909.132813 C 1622.539063 914.835938 1621.25 910.578125 1623.203125 914.875 Z M 1623.203125 914.875 " transform="matrix(0.1,0,0,-0.1,0,284.3)"/>
<path style="fill-rule:evenodd;fill:rgb(0%,68.164063%,93.75%);fill-opacity:1;stroke-width:2.16;stroke-linecap:butt;stroke-linejoin:miter;stroke:rgb(0%,0%,0%);stroke-opacity:1;stroke-miterlimit:4;" d="M 452.148438 1187.921875 C 439.882813 1183.859375 450.976563 1191.242188 440.039063 1182.609375 C 427.695313 1172.882813 419.804688 1142.765625 440.078125 1123.117188 C 483.90625 1080.578125 524.921875 1150.96875 484.609375 1184.953125 C 477.578125 1190.890625 470.234375 1192.296875 460.234375 1190.578125 C 452.421875 1189.25 453.007813 1188.195313 452.109375 1187.921875 Z M 494.0625 1056.007813 L 510.703125 1118.859375 L 538.75 1169.679688 C 515.78125 1186.476563 512.929688 1184.835938 490.15625 1197.453125 L 408.945313 1247.726563 C 386.171875 1261.164063 323.671875 1312.882813 308.710938 1331.085938 C 305.3125 1335.1875 306.523438 1334.054688 304.414063 1337.21875 C 303.984375 1337.882813 303.515625 1338.78125 303.085938 1339.40625 C 302.695313 1340.03125 302.226563 1340.929688 301.796875 1341.554688 C 287.65625 1362.609375 273.945313 1361.554688 243.59375 1411.242188 L 213.710938 1461.125 C 213.320313 1433.351563 215.351563 1401.59375 213.476563 1374.445313 C 211.015625 1339.015625 207.773438 1335.578125 241.132813 1287.609375 L 270.234375 1251.085938 C 315.273438 1207.335938 336.5625 1172.21875 394.492188 1132.84375 C 410.507813 1121.945313 475.507813 1060.890625 494.0625 1056.007813 Z M 494.0625 1056.007813 " transform="matrix(0.1,0,0,-0.1,0,284.3)"/>
<path style="fill-rule:evenodd;fill:rgb(0%,68.164063%,93.75%);fill-opacity:1;stroke-width:2.16;stroke-linecap:butt;stroke-linejoin:miter;stroke:rgb(0%,0%,0%);stroke-opacity:1;stroke-miterlimit:4;" d="M 1399.53125 1180.773438 C 1395.820313 1179.640625 1388.28125 1184.25 1377.8125 1164.523438 C 1353.867188 1119.484375 1408.632813 1074.367188 1440.273438 1126.320313 C 1452.070313 1145.773438 1443.75 1194.09375 1399.53125 1180.773438 Z M 1333.789063 1163.546875 L 1338.515625 1154.484375 C 1338.867188 1153.820313 1339.375 1152.882813 1339.726563 1152.179688 L 1348.320313 1136.632813 C 1357.460938 1122.921875 1357.460938 1124.875 1363.710938 1106.90625 L 1370.546875 1086.28125 C 1370.664063 1085.8125 1370.898438 1084.796875 1371.015625 1084.328125 C 1371.132813 1083.859375 1371.40625 1082.84375 1371.523438 1082.375 L 1377.734375 1051.945313 C 1377.890625 1051.359375 1378.242188 1050.226563 1378.75 1049.445313 C 1396.328125 1053.859375 1442.382813 1095.617188 1460.3125 1113.195313 C 1460.820313 1113.664063 1461.523438 1114.40625 1462.070313 1114.875 L 1473.867188 1123.859375 C 1474.492188 1124.289063 1475.3125 1124.835938 1475.9375 1125.265625 L 1499.882813 1142.84375 C 1531.484375 1169.757813 1579.726563 1217.101563 1607.578125 1250.03125 L 1646.132813 1304.875 C 1664.921875 1335.578125 1662.382813 1333.507813 1659.6875 1364.71875 C 1657.304688 1392.335938 1659.257813 1426.203125 1659.140625 1454.523438 L 1591.40625 1356.046875 C 1590.898438 1355.539063 1590.117188 1354.875 1589.609375 1354.367188 C 1568.789063 1334.914063 1575.625 1338.820313 1562.148438 1322.804688 L 1487.929688 1258.507813 C 1487.34375 1258.078125 1486.601563 1257.375 1486.015625 1256.945313 L 1452.929688 1234.679688 C 1452.34375 1234.25 1451.523438 1233.664063 1450.9375 1233.273438 Z M 1333.789063 1163.546875 " transform="matrix(0.1,0,0,-0.1,0,284.3)"/>
<path style="fill-rule:evenodd;fill:rgb(92.576599%,92.576599%,92.576599%);fill-opacity:1;stroke-width:2.16;stroke-linecap:butt;stroke-linejoin:miter;stroke:rgb(0%,0%,0%);stroke-opacity:1;stroke-miterlimit:4;" d="M 1861.5625 551.632813 C 1855.820313 540.617188 1848.203125 533.78125 1837.148438 527.296875 C 1828.125 521.984375 1811.523438 513.820313 1802.109375 510.421875 C 1722.578125 481.476563 1613.515625 506.984375 1608.59375 568.976563 L 1639.804688 555.5 L 1643.75 599.679688 C 1632.304688 598.9375 1627.890625 596.789063 1620 593.3125 C 1615.625 591.398438 1616.992188 592.101563 1613.4375 590.109375 L 1585.898438 571.007813 C 1578.710938 563.429688 1578.046875 559.679688 1577.34375 548.390625 C 1574.882813 508.546875 1581.289063 501.203125 1593.515625 470.460938 C 1611.835938 424.25 1582.070313 455.929688 1574.023438 461.59375 C 1541.132813 453.273438 1478.398438 421.515625 1482.226563 377.335938 C 1485.234375 342.882813 1526.171875 295.148438 1563.710938 278.351563 C 1571.210938 294.25 1564.648438 294.5625 1573.632813 306.085938 C 1578.476563 270.1875 1593.515625 206.710938 1639.375 203.039063 C 1659.726563 201.398438 1678.59375 211.90625 1690.976563 226.945313 L 1733.28125 281.59375 C 1733.398438 263.9375 1732.03125 251.4375 1726.40625 240.070313 C 1765.625 239.875 1789.335938 238.820313 1807.5 262.804688 C 1808.320313 263.859375 1811.71875 268.390625 1811.914063 268.664063 C 1838.28125 305.070313 1848.085938 374.210938 1857.5 423.429688 L 1816.40625 399.054688 L 1814.335938 408.429688 C 1818.671875 431.710938 1890.78125 502.375 1889.257813 551.476563 C 1888.203125 585.03125 1867.1875 589.757813 1857.929688 603.78125 L 1850.273438 557.375 C 1852.695313 551.867188 1848.710938 555.890625 1857.578125 552.726563 Z M 1861.5625 551.632813 " transform="matrix(0.1,0,0,-0.1,0,284.3)"/>
<path style="fill-rule:evenodd;fill:rgb(92.576599%,92.576599%,92.576599%);fill-opacity:1;stroke-width:2.16;stroke-linecap:butt;stroke-linejoin:miter;stroke:rgb(0%,0%,0%);stroke-opacity:1;stroke-miterlimit:4;" d="M 34.492188 516.90625 L 52.96875 478.078125 C 65.859375 468.234375 53.828125 454.484375 63.007813 439.484375 C 68.359375 430.65625 70.429688 424.796875 74.6875 416.554688 C 76.367188 413.3125 79.726563 407.921875 80.976563 405.5 C 85.117188 397.53125 82.109375 409.484375 85.117188 395.539063 L 39.765625 420.265625 L 40.664063 407.101563 C 54.726563 337.53125 62.773438 231.789063 150.898438 239.914063 L 164.414063 243.585938 C 167.617188 247.140625 161.289063 255.773438 161.25 281.984375 C 173.867188 266.59375 173.359375 257.296875 192.070313 239.523438 C 205 227.257813 223.476563 197.179688 259.453125 203.351563 C 283.554688 207.53125 306.171875 240.03125 312.265625 261.671875 L 313.984375 267.882813 C 316.171875 276.046875 314.296875 267.0625 316.054688 275.65625 C 319.882813 294.601563 314.84375 295.8125 324.023438 306.007813 C 324.726563 297.023438 327.8125 285.03125 331.015625 278.351563 C 369.726563 298 404.570313 332.53125 411.523438 376.476563 C 414.492188 395.03125 404.101563 413.351563 389.84375 426.90625 C 372.5 443.390625 342.539063 451.085938 320.507813 461.515625 C 311.09375 455.148438 304.609375 448 292.851563 440.773438 C 293.710938 458.898438 302.03125 471.242188 308.75 487.335938 C 315.507813 503.664063 317.421875 518.78125 317.226563 541.4375 C 316.992188 563.390625 316.757813 567.570313 294.804688 581.554688 C 280.9375 590.382813 268.75 598.664063 251.289063 599.796875 C 251.40625 583.351563 251.210938 562.492188 254.84375 555.226563 C 264.648438 557.84375 261.171875 557.804688 271.484375 562.6875 L 286.171875 568.898438 C 277.1875 538.9375 266.679688 527.804688 240 514.484375 C 183.984375 486.476563 119.0625 494.914063 61.796875 524.953125 C 37.734375 537.570313 34.375 526.359375 34.492188 516.90625 Z M 34.492188 516.90625 " transform="matrix(0.1,0,0,-0.1,0,284.3)"/>
<path style="fill-rule:evenodd;fill:rgb(0%,68.164063%,93.75%);fill-opacity:1;stroke-width:2.16;stroke-linecap:butt;stroke-linejoin:miter;stroke:rgb(0%,0%,0%);stroke-opacity:1;stroke-miterlimit:4;" d="M 623.203125 234.5625 C 662.34375 233.703125 848.164063 223.78125 874.570313 239.171875 C 889.414063 247.765625 889.570313 303.390625 889.570313 303.390625 L 875.625 308.429688 C 870.507813 309.289063 870.976563 308.429688 864.765625 308.9375 C 857.734375 309.484375 837.226563 310.070313 823.789063 310.5 C 803.476563 311.242188 779.453125 314.757813 752.1875 318.273438 C 712.890625 323.3125 619.453125 345.578125 602.8125 344.71875 C 601.71875 307.414063 604.492188 298.273438 608.28125 272.6875 C 610.585938 257.21875 613.75 245.1875 623.203125 234.5625 Z M 623.203125 234.5625 " transform="matrix(0.1,0,0,-0.1,0,284.3)"/>
<path style="fill-rule:evenodd;fill:rgb(0%,68.164063%,93.75%);fill-opacity:1;stroke-width:2.16;stroke-linecap:butt;stroke-linejoin:miter;stroke:rgb(0%,0%,0%);stroke-opacity:1;stroke-miterlimit:4;" d="M 1104.53125 230.890625 L 1270.546875 234.601563 C 1273.164063 245.617188 1276.132813 247.453125 1279.765625 260.148438 C 1285.273438 279.40625 1288.671875 318.507813 1287.65625 344.484375 C 1274.335938 345.382813 1268.085938 343.820313 1257.070313 341.242188 C 1249.101563 339.40625 1251.445313 339.640625 1243.671875 337.882813 L 1208.4375 329.71875 C 1153.945313 321.203125 1120.820313 314.367188 1066.132813 310.8125 C 978.203125 305.109375 1000.625 318.195313 1004.023438 265.578125 C 1005.742188 238.859375 1014.414063 234.25 1042.1875 234.328125 C 1070.898438 234.40625 1073.359375 230.851563 1104.53125 230.890625 Z M 1104.53125 230.890625 " transform="matrix(0.1,0,0,-0.1,0,284.3)"/>
<path style="fill-rule:evenodd;fill:rgb(0%,68.164063%,93.75%);fill-opacity:1;stroke-width:2.16;stroke-linecap:butt;stroke-linejoin:miter;stroke:rgb(0%,0%,0%);stroke-opacity:1;stroke-miterlimit:4;" d="M 490.664063 979.71875 C 490.9375 907.726563 490.546875 874.640625 477.34375 805.65625 C 473.242188 784.210938 465.820313 758.898438 459.0625 737.726563 C 437.890625 671.476563 431.328125 678.585938 419.570313 645.734375 L 371.71875 572.335938 C 371.171875 571.867188 370.390625 571.203125 369.84375 570.734375 C 369.296875 570.265625 368.515625 569.601563 367.96875 569.09375 L 350.15625 552.335938 C 323.4375 529.171875 337.34375 521.515625 393.085938 483.976563 C 436.054688 454.992188 422.695313 467.0625 447.8125 452.0625 L 498.007813 426.242188 C 665.15625 353.078125 787.421875 345.929688 982.304688 346.125 C 1027.5 346.203125 1111.640625 353.429688 1153.867188 361.320313 C 1167.851563 363.9375 1175.507813 366.164063 1190.15625 368.234375 L 1298.789063 396.789063 C 1311.953125 400.617188 1320.15625 403.859375 1331.367188 409.054688 C 1391.523438 436.867188 1433.046875 452.726563 1486.40625 492.960938 L 1496.5625 500.148438 C 1516.640625 514.640625 1529.140625 519.601563 1532.65625 536.515625 L 1505.3125 564.40625 C 1485.585938 584.289063 1461.367188 610.070313 1450.664063 637.921875 L 1429.570313 682.570313 C 1409.257813 719.367188 1391.015625 799.25 1384.882813 839.953125 C 1381.992188 859.054688 1382.539063 855.5 1380.390625 872.492188 L 1377.34375 986.398438 C 1380.742188 1029.71875 1390.820313 1032.882813 1374.101563 1028.390625 C 1373.476563 1028.234375 1372.5 1027.6875 1371.757813 1027.492188 L 1356.367188 1024.679688 C 1346.09375 1039.484375 1344.296875 1056.4375 1339.570313 1073.859375 C 1333.4375 1096.515625 1334.453125 1105.5 1325.078125 1125.109375 C 1297.96875 1118.9375 1268.945313 1093.703125 1149.414063 1078.390625 C 986.367188 1057.492188 846.25 1052.140625 682.03125 1094.914063 C 634.296875 1107.335938 574.179688 1136.242188 549.296875 1139.054688 C 534.53125 1108.625 529.375 1081.59375 519.960938 1043.898438 C 510.429688 1005.617188 494.375 1035.460938 486.992188 1028.585938 C 481.171875 1023.15625 490.625 990.421875 490.664063 979.71875 Z M 746.601563 571.007813 C 761.484375 571.203125 847.34375 557.257813 909.609375 557.21875 C 976.796875 557.21875 1021.679688 556.671875 1084.6875 566.476563 C 1099.21875 568.703125 1104.882813 571.125 1121.210938 571.007813 C 1121.953125 585.34375 1130.898438 591.476563 1134.804688 605.695313 C 1138.320313 618.390625 1142.109375 633.546875 1144.414063 644.640625 L 1154.6875 720.96875 C 1160.625 777.453125 1153.75 857.179688 1138.4375 893.351563 C 1125.3125 898.351563 1054.609375 892.21875 1023.125 894.523438 C 970.9375 898.351563 835.351563 890.96875 799.609375 894.054688 L 747.304688 894.71875 C 735.898438 894.796875 733.476563 898.3125 727.539063 888.429688 C 699.453125 841.632813 713.515625 646.984375 736.289063 595.226563 C 742.109375 582.0625 745.46875 585.96875 746.601563 571.007813 Z M 746.601563 571.007813 " transform="matrix(0.1,0,0,-0.1,0,284.3)"/>
<path style="fill-rule:evenodd;fill:rgb(92.576599%,92.576599%,92.576599%);fill-opacity:1;stroke-width:2.16;stroke-linecap:butt;stroke-linejoin:miter;stroke:rgb(0%,0%,0%);stroke-opacity:1;stroke-miterlimit:4;" d="M 1048.164063 125.617188 C 1063.671875 125.421875 1120.390625 102.570313 1169.726563 96.242188 C 1214.0625 90.539063 1239.804688 83.9375 1290.078125 80.695313 L 1366.015625 77.453125 C 1366.09375 87.726563 1366.757813 97.257813 1365 107.179688 C 1355.976563 158.664063 1289.53125 192.882813 1246.015625 203.625 C 1230.546875 207.453125 1118.4375 198.195313 1079.84375 203.46875 C 1064.375 205.578125 1042.1875 208.3125 1033.59375 205.617188 C 1047.070313 160.695313 1033.242188 143.9375 1046.953125 127.0625 C 1047.109375 126.828125 1047.929688 126.203125 1048.164063 125.617188 Z M 1048.164063 125.617188 " transform="matrix(0.1,0,0,-0.1,0,284.3)"/>
<path style="fill-rule:evenodd;fill:rgb(92.576599%,92.576599%,92.576599%);fill-opacity:1;stroke-width:2.16;stroke-linecap:butt;stroke-linejoin:miter;stroke:rgb(0%,0%,0%);stroke-opacity:1;stroke-miterlimit:4;" d="M 843.164063 125.890625 L 853.515625 132.84375 C 853.984375 159.71875 855.976563 197.765625 860.390625 208.898438 C 797.226563 193.742188 666.875 206.710938 653.75 204.601563 C 631.25 201.007813 598.242188 184.171875 578.476563 172.453125 C 577.578125 171.90625 574.960938 170.421875 574.101563 169.875 L 567.890625 165.695313 C 547.539063 150.34375 550.351563 146.984375 539.804688 131.671875 C 527.304688 113.46875 528.554688 109.953125 528.320313 80.734375 L 566.523438 77.21875 C 574.726563 77.414063 583.359375 78.664063 586.09375 79.054688 C 590.742188 79.679688 598.28125 80.304688 607.890625 80.8125 L 684.648438 90.539063 C 715.9375 94.484375 742.382813 97.765625 765 103.46875 C 778.828125 106.984375 790.585938 109.25 803.671875 113.507813 C 817.8125 118.117188 827.226563 124.523438 843.164063 125.890625 Z M 843.164063 125.890625 " transform="matrix(0.1,0,0,-0.1,0,284.3)"/>
<path style="fill-rule:evenodd;fill:rgb(92.576599%,92.576599%,92.576599%);fill-opacity:1;stroke-width:2.16;stroke-linecap:butt;stroke-linejoin:miter;stroke:rgb(0%,0%,0%);stroke-opacity:1;stroke-miterlimit:4;" d="M 843.164063 125.890625 C 840.664063 118.273438 844.6875 123.351563 835.039063 116.75 C 812.578125 101.320313 750.9375 88.273438 728.125 84.71875 C 708.75 81.671875 697.109375 79.289063 683.867188 77.296875 C 644.21875 71.4375 602.070313 64.953125 562.109375 65.03125 C 553.359375 65.070313 538.671875 67.414063 527.890625 63.390625 C 533.046875 54.132813 531.25 61.164063 532.148438 46.398438 C 535.664063 46.203125 538.203125 45.65625 541.210938 45.304688 L 566.601563 43.117188 C 639.648438 37.648438 787.890625 55.96875 850.664063 91.046875 C 850.234375 106.710938 848.398438 111.007813 853.789063 122.335938 C 848.828125 125.109375 850.15625 124.171875 843.164063 125.890625 Z M 843.164063 125.890625 " transform="matrix(0.1,0,0,-0.1,0,284.3)"/>
<path style="fill-rule:evenodd;fill:rgb(92.576599%,92.576599%,92.576599%);fill-opacity:1;stroke-width:2.16;stroke-linecap:butt;stroke-linejoin:miter;stroke:rgb(0%,0%,0%);stroke-opacity:1;stroke-miterlimit:4;" d="M 1048.164063 125.617188 L 1040.703125 121.867188 C 1046.210938 111.242188 1044.296875 106.867188 1044.492188 91.085938 L 1096.640625 70.890625 C 1108.476563 67.414063 1104.453125 69.601563 1114.140625 67.140625 C 1121.328125 65.304688 1123.867188 63.585938 1132.226563 61.398438 C 1186.757813 47.0625 1263.945313 41.4375 1321.523438 42.648438 C 1344.335938 43.15625 1340.390625 46.28125 1362.929688 45.96875 C 1362.734375 60.34375 1361.445313 57.179688 1366.210938 66.789063 C 1328.4375 58.859375 1176.367188 78.507813 1124.804688 92.6875 L 1114.375 95.851563 C 1113.632813 96.046875 1111.40625 96.671875 1110.585938 96.90625 L 1066.601563 113.351563 C 1056.171875 118.625 1055.820313 118.195313 1048.164063 125.617188 Z M 1048.164063 125.617188 " transform="matrix(0.1,0,0,-0.1,0,284.3)"/>
<path style="fill-rule:evenodd;fill:rgb(0%,68.164063%,93.75%);fill-opacity:1;stroke-width:2.16;stroke-linecap:butt;stroke-linejoin:miter;stroke:rgb(0%,0%,0%);stroke-opacity:1;stroke-miterlimit:4;" d="M 238.007813 606.125 C 303.90625 619.601563 306.367188 580.265625 327.851563 571.125 C 341.601563 578.625 332.304688 572.257813 341.210938 581.984375 C 378.242188 622.414063 385.078125 641.90625 409.023438 683.898438 C 416.484375 696.945313 428.632813 740.851563 433.28125 756.632813 C 437.421875 770.773438 439.882813 779.796875 443.554688 794.914063 C 446.09375 805.265625 450.507813 819.328125 445.546875 827.570313 C 424.453125 792.6875 363.59375 791.515625 323.164063 801.75 C 305.898438 806.164063 293.828125 814.171875 278.710938 823.234375 L 264.101563 833 C 263.554688 833.390625 262.65625 834.132813 262.148438 834.523438 C 261.679688 834.875 260.625 835.734375 260.234375 836.046875 C 259.84375 836.359375 258.945313 837.0625 258.320313 837.570313 C 251.09375 825.382813 246.09375 754.132813 244.375 723.742188 C 242.773438 694.992188 237.578125 652.101563 238.007813 606.125 Z M 238.007813 606.125 " transform="matrix(0.1,0,0,-0.1,0,284.3)"/>
<path style="fill-rule:evenodd;fill:rgb(0%,68.164063%,93.75%);fill-opacity:1;stroke-width:2.16;stroke-linecap:butt;stroke-linejoin:miter;stroke:rgb(0%,0%,0%);stroke-opacity:1;stroke-miterlimit:4;" d="M 732.929688 872.375 C 742.460938 853.546875 736.5625 801.359375 736.5625 771.984375 C 736.5625 712.570313 754.140625 639.25 753.828125 591.632813 L 851.679688 582.296875 C 897.578125 577.84375 962.226563 579.210938 1013.476563 581.90625 C 1041.523438 583.351563 1084.921875 591.671875 1113.90625 591.945313 C 1114.023438 620.382813 1116.875 629.289063 1120.546875 658.15625 C 1125.078125 693.9375 1131.328125 750.773438 1131.171875 792.726563 C 1131.054688 816.554688 1126.210938 855.96875 1134.804688 872.492188 C 1120.664063 877.257813 1113.007813 869.953125 1089.648438 868.820313 C 1079.335938 868.3125 1070.898438 869.015625 1060.546875 867.921875 C 1024.6875 864.210938 973.945313 864.25 939.804688 867.179688 C 921.445313 868.78125 862.734375 861.710938 812.851563 867.726563 L 774.570313 868.820313 C 756.484375 868.820313 738.164063 878.390625 732.929688 872.375 Z M 732.929688 872.375 " transform="matrix(0.1,0,0,-0.1,0,284.3)"/>
<path style="fill-rule:evenodd;fill:rgb(0%,68.164063%,93.75%);fill-opacity:1;stroke-width:2.16;stroke-linecap:butt;stroke-linejoin:miter;stroke:rgb(0%,0%,0%);stroke-opacity:1;stroke-miterlimit:4;" d="M 1418.710938 827.414063 C 1418.4375 785.851563 1452.1875 693.351563 1475.664063 652.296875 L 1524.648438 583.625 C 1527.96875 579.757813 1526.875 581.007813 1529.570313 578.117188 L 1536.328125 571.164063 C 1555.664063 577.179688 1563.398438 604.757813 1599.023438 609.09375 C 1612.617188 610.734375 1618.554688 606.789063 1629.921875 605.539063 C 1629.804688 617.023438 1630.15625 629.054688 1629.570313 640.421875 L 1610 835.382813 C 1609.804688 835.96875 1609.492188 837.101563 1609.0625 837.882813 C 1570.273438 807.0625 1511.523438 783.195313 1458.359375 801.085938 C 1444.648438 805.734375 1429.765625 819.445313 1418.710938 827.414063 Z M 1418.710938 827.414063 " transform="matrix(0.1,0,0,-0.1,0,284.3)"/>
</g>
</svg>
