<?xml version="1.0" encoding="UTF-8"?>
<svg xmlns="http://www.w3.org/2000/svg" xmlns:xlink="http://www.w3.org/1999/xlink" width="214.6pt" height="223.6pt" viewBox="0 0 214.6 223.6" version="1.1">
<defs>
<clipPath id="clip1">
  <path d="M 0 3 L 214.601563 3 L 214.601563 211 L 0 211 Z M 0 3 "/>
</clipPath>
</defs>
<g id="surface1">
<g clip-path="url(#clip1)" clip-rule="nonzero">
<path style=" stroke:none;fill-rule:evenodd;fill:rgb(13.719177%,12.156677%,12.547302%);fill-opacity:1;" d="M 131.429688 13.882813 L 127.371094 11.347656 C 123.339844 9.214844 117.144531 5.261719 111.140625 5.261719 C 105.664063 3.78125 94.066406 6.796875 93.894531 15.40625 L 93.894531 16.925781 C 93.894531 20.019531 95.667969 22.644531 96.9375 24.535156 C 86.164063 23.515625 74.929688 22.78125 65.492188 29.101563 C 59.878906 29.101563 55.347656 30.496094 55.347656 36.203125 L 55.347656 41.273438 C 55.347656 49.578125 59.40625 59.449219 59.40625 64.097656 C 46.074219 72.128906 35.058594 102.878906 33.539063 107.210938 L 26.253906 92.085938 C 23.960938 92.199219 16.289063 98.503906 16.289063 100.617188 C 16.289063 104.980469 27.195313 110.394531 29.480469 113.804688 C 23.839844 112.488281 10.902344 103.152344 5.640625 103.152344 C 3.894531 103.152344 0.0625 114.378906 0.0625 117.863281 L 24.859375 122.253906 L 27.453125 121.914063 L 27.453125 122.933594 L 27.320313 122.433594 L 12.699219 126.320313 L 16.097656 136.703125 L 16.566406 137.003906 L 29.296875 127.761719 L 28.265625 138.128906 L 28.464844 139.667969 C 28.464844 155.519531 34.464844 165.371094 39.914063 175.683594 C 65.183594 202.652344 111.0625 223.59375 171.328125 201.832031 C 192.804688 191.398438 205.855469 176.417969 212.476563 152.746094 C 213.691406 147.421875 214.609375 139.332031 214.609375 133.078125 C 214.609375 100.710938 193.203125 68.820313 174.035156 55.984375 L 172.511719 47.359375 C 172.152344 46.84375 168.03125 36.105469 167.277344 34.335938 C 165.300781 29.6875 163.453125 26.441406 160.949219 22.40625 C 158.144531 17.882813 148.925781 3.742188 143.09375 3.742188 C 138.066406 3.742188 134.320313 11.949219 131.429688 13.882813 Z M 131.429688 13.882813 "/>
</g>
<path style=" stroke:none;fill-rule:evenodd;fill:rgb(100%,0%,0%);fill-opacity:1;" d="M 60.734375 186.089844 L 77.46875 171.378906 C 90.0625 162.945313 107.078125 157.171875 128.195313 157.171875 C 128.3125 151.742188 132.523438 149.902344 134.785156 146.523438 C 121.523438 146.523438 115.003906 137.195313 115.003906 123.191406 L 111.304688 120.871094 L 115.511719 120.660156 L 108.03125 112.945313 L 113.363281 113.285156 L 105.121094 101.554688 C 107.164063 101.859375 118.210938 111.527344 121.089844 111.527344 C 120.761719 111.304688 129.328125 106.976563 130.222656 106.964844 C 136.71875 106.382813 144.261719 106.007813 149.890625 110.117188 C 152.039063 111.683594 156.253906 118.476563 158.117188 118.628906 L 161.664063 114.0625 C 161.664063 106.3125 157.71875 109.664063 164.78125 106.527344 C 167.484375 105.328125 171.015625 103.738281 173.777344 102.84375 C 177.648438 101.585938 188.121094 94.996094 190.574219 94.789063 L 194.648438 103.914063 C 193.617188 105.851563 186.632813 109.785156 183.984375 110.007813 C 184.390625 111.539063 186.59375 113.554688 188.039063 113.554688 C 191.191406 113.554688 200.257813 104.820313 201.734375 104.425781 L 194.753906 115.828125 L 195.171875 116.222656 L 200.730469 115.113281 L 192.960938 121.988281 L 197.679688 122.175781 L 193.753906 125.402344 L 193.621094 130.804688 C 193.621094 138.007813 185.628906 144.90625 178.402344 145.511719 C 179.6875 146.605469 191.089844 156.003906 190.574219 164.28125 C 190.574219 166.039063 182.453125 165.289063 180.433594 165.289063 L 170.796875 173.40625 C 174.664063 174.4375 179.941406 185.324219 181.953125 189.132813 C 192.007813 184.246094 201.097656 169.09375 205.203125 161.148438 C 206.246094 158.894531 208.839844 150.53125 208.761719 147.480469 L 210.863281 134.351563 L 210.863281 128.773438 C 210.863281 112.089844 204.835938 100.171875 199.199219 89.203125 C 195.757813 82.519531 181.414063 65.027344 175.363281 61.824219 C 174.914063 67.191406 172.359375 76.53125 165.722656 76.53125 L 164.203125 76.527344 C 150.285156 77.140625 141.214844 66.90625 132.246094 61.316406 C 130.019531 65.527344 123.097656 67.90625 116.527344 67.90625 L 111.960938 67.90625 C 109.753906 77.382813 96.914063 102.90625 86.597656 102.90625 C 80.074219 102.90625 75.613281 95.449219 72.398438 91.746094 C 71.90625 89.914063 67.855469 84.164063 66.871094 81.546875 C 66.074219 79.4375 62.796875 71.640625 62.765625 69.9375 C 51.570313 70.988281 36.710938 113.515625 35.496094 119.660156 L 34.359375 129.28125 L 34.359375 141.960938 C 34.359375 151.234375 38.8125 162.996094 42.5625 168.746094 C 47.378906 176.117188 53.519531 181.253906 60.734375 186.089844 Z M 118.230469 90.628906 C 130.117188 91.914063 144.164063 99.441406 151.507813 101.378906 L 154.054688 94.28125 C 149.671875 89.742188 137.015625 79.121094 122.226563 78.089844 Z M 98.222656 14.507813 L 98.222656 16.03125 C 98.222656 22.746094 115.390625 36.160156 122.570313 36.320313 C 122.570313 30.109375 129.019531 21.496094 130.175781 16.539063 C 126.535156 9.964844 99.894531 -0.0390625 98.222656 14.507813 Z M 73.414063 27.839844 C 76.859375 27.328125 102.355469 40.339844 106.078125 43.273438 L 109.425781 39.507813 L 113.484375 39.507813 C 115.359375 39.507813 115.773438 39.007813 116.527344 37.984375 C 115.871094 37.003906 105.929688 31.621094 103.824219 29.886719 C 99.917969 26.652344 102.484375 27.996094 96.457031 26.605469 C 88.4375 24.738281 81.167969 26.03125 73.414063 27.839844 Z M 73.414063 27.839844 "/>
<path style=" stroke:none;fill-rule:evenodd;fill:rgb(100%,79.6875%,1.567078%);fill-opacity:1;" d="M 155.269531 180.457031 C 158.261719 180.457031 175.96875 167.65625 177.585938 165.246094 C 170.300781 165.246094 161.742188 164.664063 155.21875 163.78125 C 151.515625 163.277344 147.714844 162.855469 144.492188 162.328125 C 141.117188 161.78125 137.664063 160.4375 134.476563 160.167969 C 135.433594 162.824219 152.59375 180.457031 155.269531 180.457031 Z M 130.925781 155.105469 C 135.222656 161.523438 166.964844 163.214844 179.617188 163.214844 L 188.234375 163.214844 L 188.234375 161.691406 C 188.234375 154.214844 165.902344 135.828125 157.300781 135.828125 C 150.632813 135.828125 133.507813 150.214844 130.925781 155.105469 Z M 130.925781 155.105469 "/>
<path style=" stroke:none;fill-rule:evenodd;fill:rgb(100%,100%,100%);fill-opacity:1;" d="M 162.339844 124.011719 L 158.277344 124.011719 C 158.277344 134.582031 157.878906 131.820313 164.535156 135.496094 C 166.335938 136.496094 174.933594 142.78125 175.523438 142.78125 L 176.535156 142.78125 C 184.683594 142.78125 191.246094 136.214844 191.246094 128.070313 L 191.246094 127.054688 C 191.246094 124.148438 190.4375 123.429688 190.253906 121.113281 L 171.972656 124.011719 L 171.972656 126.546875 C 171.972656 129.304688 169.539063 131.621094 166.898438 131.621094 C 163.492188 131.621094 160.519531 127.792969 162.339844 124.011719 Z M 155.230469 123.503906 L 142.550781 122.996094 C 142.550781 127.03125 141.996094 130.101563 137.988281 130.101563 L 136.972656 130.101563 C 134.46875 130.101563 132.40625 128.039063 132.40625 125.535156 L 132.40625 125.027344 C 132.40625 123.28125 132.785156 123.066406 132.855469 121.816406 L 118.71875 118.945313 C 117.929688 120.574219 117.195313 123.597656 117.195313 126.039063 C 117.195313 134.414063 124.40625 142.78125 132.40625 142.78125 L 137.988281 142.78125 C 139.851563 142.78125 147.289063 137.292969 149.449219 135.976563 C 155.316406 132.398438 155.230469 132.824219 155.230469 123.503906 Z M 77.121094 171.183594 L 60.390625 185.894531 C 72.382813 196.316406 103.453125 204.660156 126.828125 204.660156 L 127.339844 204.660156 C 137.066406 204.660156 150.503906 202.789063 157.953125 200.28125 C 164.308594 198.144531 178.554688 193.105469 181.609375 188.9375 C 179.597656 185.128906 174.320313 174.242188 170.449219 173.210938 C 167.988281 174.863281 156.746094 183.355469 154.21875 183.355469 C 152.410156 183.355469 141.710938 172.914063 140.148438 171.054688 C 138.117188 168.632813 136.199219 166.226563 134.054688 163.960938 C 133.496094 163.367188 127.886719 157.039063 127.847656 156.980469 C 106.734375 156.980469 89.71875 162.746094 77.121094 171.183594 Z M 77.121094 171.183594 "/>
<path style=" stroke:none;fill-rule:evenodd;fill:rgb(100%,94.921875%,0%);fill-opacity:1;" d="M 107.460938 60.371094 C 106.65625 60.796875 105.171875 61.894531 104.414063 61.894531 L 100.335938 62.054688 L 94.785156 60.878906 C 92.136719 60.261719 85.648438 56.566406 85.648438 53.78125 L 85.648438 52.765625 C 85.648438 50.578125 89.414063 48.199219 91.738281 48.199219 L 94.785156 48.199219 C 99.765625 48.199219 101.578125 49.328125 105.433594 50.230469 L 105.433594 47.691406 C 104.515625 45.363281 92.496094 39.011719 90.386719 36.867188 C 85.378906 34.34375 76.664063 31.460938 69.414063 31.460938 L 68.914063 31.460938 C 64.660156 31.460938 60.289063 32.773438 60.289063 37.039063 L 60.289063 41.101563 C 60.289063 57.46875 74.019531 98.414063 86.664063 98.414063 L 88.183594 98.414063 C 94.621094 98.414063 99.3125 89.597656 101.898438 85.242188 C 103.402344 82.703125 109.996094 69.535156 109.996094 66.460938 C 109.996094 66.113281 107.777344 61.027344 107.460938 60.371094 Z M 120.640625 49.5625 C 118.839844 48.222656 116.371094 43.121094 114.054688 43.121094 L 112.53125 43.121094 C 109.363281 43.121094 107.460938 46.53125 107.460938 49.722656 L 107.460938 50.230469 C 107.460938 54.851563 109.765625 64.433594 114.054688 64.433594 L 118.621094 64.433594 C 122.5625 64.433594 130.289063 61.578125 130.289063 57.835938 C 130.289063 53.164063 128.589844 49.476563 126.746094 46.664063 C 123.84375 42.265625 124.550781 41.101563 117.914063 40.996094 Z M 141.445313 44.644531 C 139.011719 49.242188 134.902344 48.953125 131.296875 51.246094 L 132.820313 58.851563 C 140.824219 63.085938 151.246094 73.5625 162.746094 73.5625 C 168.203125 73.5625 171.367188 65.695313 171.367188 59.863281 C 171.367188 48.523438 165.902344 36.246094 161.746094 28.910156 C 158.867188 23.820313 149.300781 7.117188 142.960938 7.117188 C 136.992188 7.117188 124.703125 30.964844 124.703125 38.5625 C 124.703125 40.425781 125.488281 41.015625 126.226563 42.113281 C 129.605469 39.851563 132.5625 32.980469 138.910156 32.980469 L 140.9375 32.980469 C 142.578125 32.980469 143.976563 35.1875 143.976563 37.039063 C 143.980469 39.671875 142.382813 42.871094 141.445313 44.644531 Z M 141.445313 44.644531 "/>
</g>
</svg>
